<svg xmlns="http://www.w3.org/2000/svg" viewBox="0 0 1200 675" role="img">
  <defs><linearGradient id="bg" x1="0" x2="1" y1="0" y2="1"><stop stop-color="#edf5f9"/><stop offset="1" stop-color="#f8f1ff"/></linearGradient><filter id="s" x="-20%" y="-20%" width="140%" height="140%"><feDropShadow dx="0" dy="18" stdDeviation="18" flood-color="#0b2239" flood-opacity=".17"/></filter></defs>
  <rect width="1200" height="675" fill="url(#bg)"/><circle cx="1030" cy="132" r="78" fill="#d6f0ee"/><circle cx="164" cy="540" r="108" fill="#ffe1d5"/>
  <g filter="url(#s)"><rect x="188" y="130" width="824" height="414" rx="34" fill="#fff"/><rect x="246" y="190" width="708" height="254" rx="24" fill="#102a43"/><path d="M600 238l128 48v82c0 74-50 124-128 158-78-34-128-84-128-158v-82z" fill="#2bb3a3"/><path d="M600 276l78 30v58c0 48-30 82-78 106-48-24-78-58-78-106v-58z" fill="#e8fffb"/><rect x="566" y="356" width="68" height="70" rx="16" fill="#183b56"/><path d="M580 356v-28a20 20 0 0140 0v28" fill="none" stroke="#183b56" stroke-width="18" stroke-linecap="round"/><circle cx="600" cy="390" r="8" fill="#f5c542"/><path d="M318 286h110M318 340h88M772 286h110M792 340h72" stroke="#63d2c6" stroke-width="16" stroke-linecap="round"/><path d="M348 394h90M766 394h104" stroke="#ff7a59" stroke-width="14" stroke-linecap="round"/></g>
</svg>
