<svg xmlns="http://www.w3.org/2000/svg" viewBox="0 0 1200 675" role="img">
  <defs><linearGradient id="bg" x1="0" x2="1" y1="0" y2="1"><stop stop-color="#fff7ed"/><stop offset="1" stop-color="#eef8f7"/></linearGradient><filter id="s" x="-20%" y="-20%" width="140%" height="140%"><feDropShadow dx="0" dy="18" stdDeviation="18" flood-color="#0b2239" flood-opacity=".13"/></filter></defs>
  <rect width="1200" height="675" fill="url(#bg)"/><circle cx="180" cy="520" r="96" fill="#d6f0ee"/><circle cx="1032" cy="132" r="78" fill="#ffe1d5"/>
  <g filter="url(#s)"><rect x="244" y="96" width="712" height="482" rx="42" fill="#fff"/><rect x="318" y="154" width="214" height="354" rx="34" fill="#102a43"/><rect x="346" y="196" width="158" height="72" rx="20" fill="#63d2c6"/><rect x="346" y="298" width="158" height="20" rx="10" fill="#d9e8f1"/><rect x="346" y="338" width="110" height="20" rx="10" fill="#d9e8f1"/><rect x="346" y="400" width="158" height="56" rx="18" fill="#ff7a59"/><rect x="610" y="154" width="264" height="112" rx="24" fill="#eef6f8"/><rect x="610" y="302" width="264" height="206" rx="24" fill="#eef6f8"/><circle cx="650" cy="194" r="18" fill="#2bb3a3"/><circle cx="708" cy="194" r="18" fill="#ff7a59"/><circle cx="766" cy="194" r="18" fill="#f5c542"/><rect x="642" y="348" width="88" height="112" rx="18" fill="#fff"/><rect x="764" y="348" width="74" height="112" rx="18" fill="#fff"/><path d="M862 532l52 28-42 20 30 50-28 16-30-50-40 30z" fill="#183b56"/></g>
</svg>
